# xmcd
#
# Track frame offsets:
#	150
#	33895
#	67060
#	84445
#
# Disc length: 1235 seconds
#
# Revision: 1
# Processed by: cddbd v1.5.1PL0 Copyright (c) Steve Scherf et al.
# Submitted via: EasyCDDAExtractor 8.0.2.1
#
DISCID=2a04d104
DTITLE=Deep Purple - Live8 Toronto  02-07-05
DYEAR=2005
DGENRE=Hard Rock
TTITLE0=Highway Star
TTITLE1=Smoke On The Water
TTITLE2=Hush
TTITLE3=Interview On Canadian Television
EXTD=
EXTT0=
EXTT1=
EXTT2=
EXTT3=
PLAYORDER=
